<?xml version="1.0" encoding="UTF-8" standalone="no"?>
<svg width="300px" height="73px" viewBox="0 0 300 73" version="1.1" xmlns="http://www.w3.org/2000/svg" xmlns:xlink="http://www.w3.org/1999/xlink">
    <!-- Generator: Sketch 43.1 (39012) - http://www.bohemiancoding.com/sketch -->
    <title>Brightstar_logo_RGB</title>
    <desc>Created with Sketch.</desc>
    <defs>
        <polygon id="path-1" points="8.13151629e-20 0.555061516 8.13151629e-20 65.94 36.945 65.94 36.945 0.555061516 0 0.555061516"></polygon>
        <polygon id="path-3" points="0.612676726 0.347 31.2445723 0.347 31.2445723 62.869 0.612676726 62.869 0.612676726 0.347"></polygon>
    </defs>
    <g id="Page-1" stroke="none" stroke-width="1" fill="none" fill-rule="evenodd">
        <g id="Brightstar_logo_RGB">
            <path d="M95.085,53.356 L98.284,53.356 C104.421,53.356 107.877,52.736 107.877,44.794 C107.877,36.8 103.596,36.336 98.387,36.336 L95.085,36.336 L95.085,53.356 Z M95.085,35.201 L98.387,35.201 C102.513,35.201 106.794,35.098 106.794,27.155 C106.794,20.243 104.266,19.522 97.716,19.522 L95.085,19.522 L95.085,35.201 Z M86.111,53.356 L90.444,53.356 L90.444,19.522 L86.111,19.522 L86.111,18.387 L98.799,18.387 C104.008,18.387 111.848,19.522 111.848,27.258 C111.848,33.086 105.504,35.253 103.184,35.614 L103.184,35.717 C106.38,35.974 113.137,37.883 113.137,44.743 C113.137,53.768 104.576,54.491 99.676,54.491 L86.111,54.491 L86.111,53.356 L86.111,53.356 Z" id="Fill-1" fill="#414447"></path>
            <path d="M115.355,53.356 L119.069,53.356 L119.069,32.107 L114.891,32.107 L114.891,30.972 L118.604,30.972 C120.1,30.972 121.803,30.765 122.782,30.56 L122.782,36.902 L122.886,36.902 C123.195,35.305 125.465,30.044 129.848,30.044 C131.911,30.044 133.406,31.436 133.406,33.24 C133.406,34.943 132.221,36.026 131.138,36.026 C129.487,36.026 128.764,35.098 128.764,33.758 C128.764,33.24 128.971,32.828 128.971,32.519 C128.971,32.107 128.764,32.004 128.352,32.004 C125.517,32.004 122.988,38.141 122.988,42.989 L122.988,53.356 L126.856,53.356 L126.856,54.491 L115.355,54.491 L115.355,53.356" id="Fill-2" fill="#414447"></path>
            <path d="M138.513,22.565 C138.513,21.274 139.596,20.191 140.884,20.191 C142.175,20.191 143.258,21.274 143.258,22.565 C143.258,23.855 142.175,24.937 140.884,24.937 C139.596,24.937 138.513,23.855 138.513,22.565 M135.315,53.356 L139.029,53.356 L139.029,32.107 L134.851,32.107 L134.851,30.972 L138.564,30.972 C140.06,30.972 141.968,30.765 142.949,30.56 L142.949,53.356 L146.816,53.356 L146.816,54.491 L135.315,54.491 L135.315,53.356" id="Fill-3" fill="#414447"></path>
            <path d="M158.37,44.382 C162.908,44.382 163.012,42.111 163.012,37.625 C163.012,33.963 163.012,31.178 158.525,31.178 C153.832,31.178 153.832,34.17 153.832,37.625 C153.832,41.287 153.832,44.382 158.37,44.382 L158.37,44.382 Z M153.934,54.129 C153.418,54.8 151.819,56.915 151.819,59.236 C151.819,62.485 154.708,64.91 158.834,64.91 C164.663,64.91 168.581,60.268 168.581,57.018 C168.581,54.388 167.55,53.356 165.282,53.356 C164.87,53.356 163.991,53.511 163.424,53.511 L153.934,54.129 Z M163.012,49.694 C163.683,49.694 164.507,49.539 164.971,49.539 C168.531,49.539 170.335,52.066 170.335,55.626 C170.335,61.144 165.746,66.045 158.267,66.045 C153.677,66.045 149.035,63.93 149.035,59.236 C149.035,56.863 151.769,54.748 152.85,54.079 C150.839,53.511 148.828,52.118 148.828,48.818 C148.828,45.929 151.974,44.33 153.934,44.073 L153.934,43.969 C152.386,43.247 149.706,41.443 149.706,37.625 C149.706,34.427 152.748,30.043 158.577,30.043 C162.239,30.043 164.043,31.901 164.971,32.828 C166.209,31.385 167.138,29.631 169.252,29.631 C170.696,29.631 171.471,30.558 171.471,31.797 C171.471,32.623 171.006,33.551 169.664,33.551 C167.912,33.551 168.065,32.056 167.396,32.056 C166.984,32.056 166.209,33.087 165.849,33.705 C166.365,34.479 167.138,36.439 167.138,37.625 C167.138,42.835 162.341,45.517 158.834,45.517 C157.235,45.517 156.307,45.105 155.327,44.794 C153.832,44.898 150.582,45.569 150.582,48.199 C150.582,50.21 152.181,50.314 153.521,50.314 C154.244,50.314 155.12,50.21 155.894,50.158 L163.012,49.694 L163.012,49.694 Z" id="Fill-4" fill="#414447"></path>
            <path d="M172.863,53.356 L176.577,53.356 L176.577,19.522 L172.399,19.522 L172.399,18.387 L176.112,18.387 C177.608,18.387 179.516,18.18 180.496,17.975 L180.496,37.161 L180.599,37.161 C181.786,34.53 184.88,30.044 189.781,30.044 C195.195,30.044 196.278,33.808 196.278,35.51 L196.278,53.356 L200.147,53.356 L200.147,54.491 L188.645,54.491 L188.645,53.356 L192.359,53.356 L192.359,35.098 C192.359,33.138 192.256,31.179 189.161,31.179 C185.912,31.179 180.496,35.666 180.496,42.113 L180.496,53.356 L184.056,53.356 L184.056,54.491 L172.863,54.491 L172.863,53.356" id="Fill-5" fill="#414447"></path>
            <path d="M214.588,50.468 C213.764,52.222 212.113,55.419 207.78,55.419 C203.086,55.419 202.983,52.686 202.983,48.611 L202.983,32.107 L199.217,32.107 L199.217,30.971 L202.983,30.971 L202.983,24.679 C203.293,24.731 203.602,24.783 203.859,24.783 C204.891,24.783 206.129,24.422 206.904,24.06 L206.904,30.971 L213.041,30.971 L213.041,32.107 L206.904,32.107 L206.904,49.592 C206.904,52.943 207.831,53.459 209.687,53.459 C212.009,53.459 212.989,51.087 213.764,50.056 L214.588,50.468" id="Fill-6" fill="#414447"></path>
            <path d="M215.98,45.723 L216.908,45.723 C217.322,47.837 218.766,54.285 224.543,54.285 C227.946,54.285 230.216,51.86 230.216,48.973 C230.216,44.175 223.408,44.432 220.518,43.453 C217.322,42.421 216.032,40.721 216.032,36.696 C216.032,33.757 218.611,30.044 222.944,30.044 C225.678,30.044 226.914,31.178 227.894,32.158 L229.185,30.766 L229.957,30.766 L229.957,37.316 L229.029,37.316 C228.462,35.717 227.378,31.178 222.944,31.178 C219.797,31.178 217.888,33.446 217.888,35.872 C217.888,39.275 222.066,39.172 225.11,39.894 C228.153,40.617 232.072,41.804 232.072,47.013 C232.072,51.5 229.545,55.419 224.388,55.419 C221.086,55.419 219.487,53.77 218.404,52.788 L216.755,54.49 L215.98,54.49 L215.98,45.723" id="Fill-7" fill="#414447"></path>
            <path d="M247.648,50.468 C246.824,52.222 245.173,55.419 240.84,55.419 C236.147,55.419 236.043,52.686 236.043,48.611 L236.043,32.107 L232.278,32.107 L232.278,30.971 L236.043,30.971 L236.043,24.679 C236.354,24.731 236.663,24.783 236.919,24.783 C237.951,24.783 239.189,24.422 239.964,24.06 L239.964,30.971 L246.101,30.971 L246.101,32.107 L239.964,32.107 L239.964,49.592 C239.964,52.943 240.892,53.459 242.748,53.459 C245.07,53.459 246.049,51.087 246.824,50.056 L247.648,50.468" id="Fill-8" fill="#414447"></path>
            <path d="M262.605,42.009 C259.304,42.112 253.167,43.092 253.167,48.301 C253.167,51.292 254.507,53.459 257.138,53.459 C259.202,53.459 260.851,51.551 261.678,50.106 C262.297,49.024 262.605,47.682 262.605,44.484 L262.605,42.009 Z M270.754,52.943 C269.877,53.975 268.538,55.418 266.423,55.418 C263.43,55.418 262.657,52.479 262.605,50.777 L262.502,50.777 C261.626,52.272 259.408,55.418 255.282,55.418 C251.104,55.418 249.041,52.067 249.041,49.076 C249.041,41.957 259.82,41.081 262.605,40.874 L262.605,36.129 C262.605,32.829 262.605,31.178 259.304,31.178 C256.777,31.178 254.353,32.055 254.353,33.499 C254.353,34.478 255.489,34.478 255.489,36.077 C255.489,37.16 254.714,38.244 253.063,38.244 C251.62,38.244 250.847,37.264 250.847,35.665 C250.847,32.881 254.353,30.044 259.615,30.044 C261.162,30.044 263.43,30.507 264.256,30.92 C265.855,31.746 266.524,31.951 266.524,35.665 L266.524,48.972 C266.524,50.673 266.524,53.459 267.866,53.459 C269.053,53.459 269.774,52.531 270.033,52.272 L270.754,52.943 L270.754,52.943 Z" id="Fill-9" fill="#414447"></path>
            <path d="M272.25,53.356 L275.963,53.356 L275.963,32.107 L271.786,32.107 L271.786,30.972 L275.499,30.972 C276.995,30.972 278.698,30.765 279.677,30.56 L279.677,36.902 L279.781,36.902 C280.089,35.305 282.359,30.044 286.742,30.044 C288.806,30.044 290.301,31.436 290.301,33.24 C290.301,34.943 289.116,36.026 288.032,36.026 C286.382,36.026 285.659,35.098 285.659,33.758 C285.659,33.24 285.866,32.828 285.866,32.519 C285.866,32.107 285.659,32.004 285.247,32.004 C282.411,32.004 279.882,38.141 279.882,42.989 L279.882,53.356 L283.751,53.356 L283.751,54.491 L272.25,54.491 L272.25,53.356" id="Fill-10" fill="#414447"></path>
            <path d="M27.526,52.407 C27.515,52.364 27.487,52.327 27.449,52.305 C25.751,51.32 24.228,50.078 22.92,48.608 C22.86,48.54 22.757,48.534 22.688,48.593 L9.074,60.463 C9.041,60.492 9.02,60.533 9.018,60.577 C9.015,60.622 9.03,60.664 9.06,60.697 C11.655,63.622 14.671,66.099 18.03,68.055 C18.056,68.07 18.086,68.077 18.113,68.077 C18.169,68.077 18.225,68.049 18.254,67.997 L27.508,52.533 C27.53,52.496 27.537,52.449 27.526,52.407" id="Fill-11" fill="#DF4B47"></path>
            <g id="Group-17" transform="translate(0.000000, 7.000000)">
                <mask id="mask-2" fill="white">
                    <use xlink:href="#path-1"></use>
                </mask>
                <g id="Clip-13"></g>
                <path d="M20.628,38.652 C20.639,38.61 20.635,38.564 20.613,38.527 C19.802,37.094 19.188,35.571 18.785,34.004 C18.763,33.915 18.672,33.861 18.585,33.883 L1.037,38.26 C0.948,38.283 0.893,38.373 0.915,38.46 C1.701,41.625 2.906,44.664 4.501,47.494 C4.531,47.547 4.588,47.579 4.645,47.579 C4.673,47.579 4.701,47.571 4.725,47.557 L20.548,38.752 C20.587,38.73 20.617,38.695 20.628,38.652" id="Fill-12" fill="#DF4B47" mask="url(#mask-2)"></path>
                <path d="M18.092,27.954 C18.131,27.954 18.17,27.94 18.2,27.916 C18.233,27.886 18.253,27.845 18.257,27.801 C18.37,26.427 18.632,25.069 19.04,23.766 C19.066,23.677 19.018,23.585 18.932,23.557 L1.849,18.135 C1.762,18.107 1.67,18.153 1.642,18.24 C0.797,20.816 0.247,23.494 0,26.198 C-0.003,26.243 0.01,26.285 0.038,26.32 C0.065,26.354 0.106,26.376 0.15,26.38 L18.078,27.953 C18.083,27.954 18.087,27.954 18.092,27.954" id="Fill-14" fill="#DF4B47" mask="url(#mask-2)"></path>
                <path d="M22.542,17.114 C22.572,17.14 22.61,17.155 22.651,17.155 L22.662,17.155 C22.706,17.151 22.747,17.131 22.775,17.097 C23.54,16.217 24.394,15.406 25.315,14.685 C25.35,14.657 25.372,14.617 25.378,14.572 C25.383,14.53 25.37,14.486 25.343,14.452 C22.468,10.829 15.765,2.376 14.377,0.618 C14.322,0.546 14.218,0.535 14.146,0.589 C12.34,1.978 10.662,3.537 9.155,5.219 C9.125,5.252 9.111,5.297 9.114,5.341 C9.116,5.383 9.137,5.426 9.17,5.456 L22.542,17.114" id="Fill-15" fill="#DF4B47" mask="url(#mask-2)"></path>
                <path d="M36.781,47.818 C34.451,47.818 32.183,47.395 30.041,46.557 C29.955,46.525 29.861,46.566 29.826,46.65 L23.085,63.321 C23.068,63.362 23.068,63.408 23.086,63.449 C23.103,63.489 23.137,63.521 23.177,63.538 C27.386,65.172 31.828,66 36.383,66 C36.518,66 36.655,66 36.786,65.996 C36.875,65.994 36.945,65.92 36.945,65.832 L36.945,47.983 C36.945,47.892 36.873,47.818 36.781,47.818" id="Fill-16" fill="#DF4B47" mask="url(#mask-2)"></path>
            </g>
            <path d="M50.197,23.378 C50.228,23.41 50.269,23.428 50.313,23.43 L50.315,23.43 C50.359,23.43 50.4,23.412 50.432,23.382 L62.641,11.409 C62.706,11.346 62.706,11.243 62.643,11.176 C61.528,10.023 60.314,8.921 59.035,7.904 C58.999,7.877 58.955,7.864 58.912,7.869 C58.868,7.875 58.828,7.897 58.802,7.932 L48.296,21.443 C48.241,21.515 48.254,21.619 48.324,21.674 C48.98,22.192 49.611,22.765 50.197,23.378" id="Fill-18" fill="#DF4B47"></path>
            <path d="M72.753,33.571 C72.746,33.481 72.668,33.412 72.576,33.42 L55.467,34.747 C55.377,34.752 55.308,34.832 55.316,34.922 C55.347,35.36 55.362,35.802 55.362,36.233 C55.362,36.493 55.356,36.765 55.342,37.092 C55.34,37.135 55.356,37.179 55.386,37.211 C55.415,37.242 55.456,37.262 55.5,37.264 L72.677,37.941 L72.683,37.941 C72.725,37.941 72.764,37.926 72.795,37.897 C72.827,37.867 72.845,37.826 72.847,37.782 C72.864,37.359 72.871,36.932 72.871,36.512 C72.871,35.528 72.832,34.54 72.753,33.571" id="Fill-19" fill="#DF4B47"></path>
            <g id="Group-23" transform="translate(33.000000, 0.000000)">
                <mask id="mask-4" fill="white">
                    <use xlink:href="#path-3"></use>
                </mask>
                <g id="Clip-21"></g>
                <path d="M18.038,48.412 C17.97,48.353 17.867,48.358 17.806,48.426 C17.375,48.918 16.935,49.375 16.495,49.785 C16.463,49.815 16.443,49.857 16.443,49.9 C16.441,49.944 16.456,49.986 16.486,50.018 L28.427,62.817 C28.458,62.851 28.499,62.869 28.543,62.869 L28.547,62.869 C28.592,62.869 28.632,62.854 28.662,62.825 C29.545,61.976 30.401,61.066 31.205,60.12 C31.265,60.05 31.255,59.948 31.187,59.889 L18.038,48.412" id="Fill-20" fill="#DF4B47" mask="url(#mask-4)"></path>
                <path d="M6.654,0.428 C4.728,0.321 2.758,0.319 0.798,0.425 C0.746,0.427 0.697,0.447 0.662,0.48 C0.628,0.514 0.61,0.558 0.613,0.602 L2.192,17.718 C2.201,17.809 2.295,17.877 2.405,17.87 C3.405,17.814 4.429,17.816 5.445,17.877 C5.499,17.881 5.553,17.866 5.592,17.836 L5.593,17.834 C5.632,17.805 5.654,17.764 5.658,17.722 L6.839,0.604 C6.845,0.514 6.764,0.434 6.654,0.428" id="Fill-22" fill="#DF4B47" mask="url(#mask-4)"></path>
            </g>
            <path d="M295.312,31.75 L295.312,32.892 L296.419,32.892 C296.648,32.892 296.823,32.845 296.943,32.752 C297.066,32.656 297.128,32.505 297.128,32.299 C297.128,32.12 297.062,31.984 296.932,31.891 C296.801,31.797 296.597,31.75 296.318,31.75 L295.312,31.75 Z M294.864,34.839 L294.864,31.337 L296.415,31.337 C296.823,31.337 297.126,31.419 297.324,31.582 C297.521,31.742 297.62,31.984 297.62,32.307 C297.62,32.604 297.531,32.836 297.352,33.004 C297.173,33.173 296.898,33.273 296.526,33.305 L297.576,34.839 L297.063,34.839 L296.078,33.305 L295.312,33.305 L295.312,34.839 L294.864,34.839 Z M293.454,33.12 C293.454,33.828 293.704,34.433 294.203,34.935 C294.705,35.435 295.31,35.684 296.018,35.684 C296.726,35.684 297.329,35.435 297.829,34.935 C298.331,34.433 298.582,33.828 298.582,33.12 C298.582,32.413 298.331,31.809 297.829,31.31 C297.329,30.808 296.726,30.557 296.018,30.557 C295.31,30.557 294.705,30.808 294.203,31.31 C293.704,31.809 293.454,32.413 293.454,33.12 Z M296.018,36.197 C295.169,36.197 294.443,35.897 293.843,35.296 C293.242,34.695 292.941,33.97 292.941,33.12 C292.941,32.271 293.242,31.546 293.843,30.945 C294.443,30.344 295.169,30.044 296.018,30.044 C296.867,30.044 297.593,30.344 298.193,30.945 C298.794,31.546 299.095,32.271 299.095,33.12 C299.095,33.97 298.794,34.695 298.193,35.296 C297.593,35.897 296.867,36.197 296.018,36.197 L296.018,36.197 Z" id="Fill-24" fill="#414447"></path>
        </g>
    </g>
</svg>